<?xml version="1.0" standalone="no"?>
<!DOCTYPE svg PUBLIC "-//W3C//DTD SVG 20010904//EN"
 "http://www.w3.org/TR/2001/REC-SVG-20010904/DTD/svg10.dtd">
<svg version="1.0" xmlns="http://www.w3.org/2000/svg"
 width="700.000000pt" height="700.000000pt" viewBox="0 0 700.000000 700.000000"
 preserveAspectRatio="xMidYMid meet">
<metadata>
Created by potrace 1.11, written by Peter Selinger 2001-2013
</metadata>
<g transform="translate(0.000000,700.000000) scale(0.100000,-0.100000)"
fill="#000000" stroke="none">
<path d="M3412 6644 c-70 -18 -2506 -1423 -2562 -1476 -51 -49 -85 -109 -104
-183 -14 -52 -16 -227 -16 -1472 0 -1007 3 -1427 11 -1465 16 -74 50 -137 103
-189 58 -57 2493 -1466 2570 -1487 62 -16 176 -10 231 12 21 9 590 335 1264
724 886 511 1238 719 1269 750 24 24 58 73 75 110 l32 67 3 1444 c2 1280 1
1451 -13 1505 -19 75 -52 132 -105 183 -54 50 -2452 1439 -2540 1470 -74 26
-141 28 -218 7z m1876 -2274 c3 -767 -2 -888 -44 -1022 -81 -261 -277 -443
-559 -520 -118 -32 -373 -32 -499 0 -300 76 -510 278 -587 567 -31 114 -31
327 -1 440 78 292 292 512 570 587 104 28 291 30 377 4 80 -24 151 -61 208
-108 l47 -40 0 401 0 401 243 -2 242 -3 3 -705z m-2588 69 c127 -15 194 -35
306 -89 171 -83 307 -229 375 -403 77 -199 76 -435 -2 -637 -90 -234 -295
-419 -534 -484 -93 -26 -266 -31 -348 -12 -85 20 -178 65 -239 117 l-48 40 0
-400 0 -401 -240 0 -240 0 0 785 c0 864 0 864 62 1012 140 337 498 523 908
472z"/>
<path d="M4331 3990 c-110 -24 -203 -99 -243 -198 -19 -48 -23 -76 -23 -172 0
-106 2 -120 29 -178 56 -120 157 -182 313 -190 159 -8 265 34 330 132 47 69
58 116 57 246 0 95 -4 125 -23 172 -30 76 -94 140 -169 168 -65 25 -202 35
-271 20z"/>
<path d="M2480 3991 c-101 -19 -183 -77 -225 -161 -50 -98 -57 -271 -16 -379
29 -78 73 -126 149 -163 64 -32 71 -33 187 -33 111 0 125 2 182 29 72 33 134
94 166 164 19 41 22 65 22 177 0 124 -1 133 -30 189 -36 70 -100 129 -175 157
-61 23 -190 33 -260 20z"/>
</g>
</svg>
